<svg width="48" height="34" viewBox="0 0 48 34" fill="none" xmlns="http://www.w3.org/2000/svg">
<mask id="mask0" mask-type="alpha" maskUnits="userSpaceOnUse" x="0" y="8" width="29" height="25">
<path fill-rule="evenodd" clip-rule="evenodd" d="M0 8.09697H28.903V33H0V8.09697Z" fill="white"/>
</mask>
<g mask="url(#mask0)">
<path fill-rule="evenodd" clip-rule="evenodd" d="M13.4406 16.366C12.3535 15.2794 10.7585 15.5702 9.77959 16.2575C8.14489 17.4051 7.37011 19.7592 8.10504 21.8773C8.79313 23.8604 10.2727 25.0224 12.7153 25.123C15.7565 25.2481 18.325 22.5429 18.8175 19.8311C19.4367 16.423 18.0081 13.4047 14.9141 11.905C12.4236 10.6977 9.70795 10.8798 7.28528 12.562C5.40106 13.8702 4.18585 15.6929 3.53761 17.8758C2.75787 20.5011 3.13239 23.0131 4.56781 25.3197C6.44863 28.3426 9.25682 29.6725 12.7816 29.7693C15.1607 29.8346 17.2881 29.2287 19.2173 27.8913C20.7224 26.8478 21.8957 25.5124 22.5416 23.7648C22.5934 23.6249 22.6385 23.4787 22.6581 23.3317C22.6779 23.1814 22.6624 23.0264 22.6624 22.8702C24.984 23.1452 26.983 25.02 28.903 28.7686C28.379 29.0572 27.8664 29.3926 27.3134 29.6342C25.5361 30.4107 23.7892 31.303 21.9436 31.8641C20.2436 32.3808 18.4388 32.5859 16.6656 32.8163C15.4526 32.9741 14.2085 33.0429 12.9887 32.9722C9.08638 32.7461 5.58033 31.5053 2.94366 28.4772C1.28213 26.569 0.336759 24.3073 0.0725021 21.7556C-0.284027 18.3126 0.689256 15.2165 2.63985 12.4728C4.24494 10.2151 6.58261 8.95529 9.31172 8.36601C11.9563 7.79489 14.4585 8.13883 16.8292 9.34272C19.5824 10.7409 21.3923 12.9696 22.0157 16.0166C22.7037 19.3795 21.8631 22.4042 19.7812 25.1323C18.0244 27.4345 15.5939 28.337 12.8725 28.3115C8.86245 28.2741 5.73277 26.3092 4.78384 21.9236C3.93028 17.9797 6.02836 13.2854 10.7158 12.4783C13.8049 11.9463 16.7458 13.3138 17.5552 17.085C18.0274 19.2846 17.5952 21.2649 15.8927 22.7885C14.0597 24.4289 11.4641 24.6918 9.80053 22.8245C8.159 20.982 8.82678 17.4034 11.5421 16.7575C12.1716 16.6079 12.8097 16.4952 13.4406 16.366Z" fill="#FEFEFE"/>
</g>
<path fill-rule="evenodd" clip-rule="evenodd" d="M41.5468 0H48C47.9277 1.03194 47.9528 2.0529 47.7662 3.0325C47.4342 4.7762 47.0752 6.52769 46.5383 8.21445C46.0245 9.82852 45.4126 11.4462 44.5864 12.9143C43.5145 14.8188 42.2847 16.6543 40.9425 18.3755C39.6875 19.9845 38.2857 21.5044 36.7868 22.8837C35.0424 24.4889 33.1265 25.9042 31.2741 27.3876C30.9796 27.6234 30.6271 27.7851 30.2696 28C30.0127 27.421 29.7474 27.0309 30.4549 26.4273C32.9678 24.2836 35.3318 21.9713 37.1075 19.1296C39.122 15.9059 40.4945 12.4503 41.1086 8.65709C41.5308 6.04878 41.5407 3.44461 41.5467 0.827234C41.5473 0.551914 41.5468 0.276593 41.5468 0Z" fill="#FEFEFE"/>
<path fill-rule="evenodd" clip-rule="evenodd" d="M29.7868 25C28.8333 24.189 28.8022 24.1471 29.3946 23.1877C31.0074 20.5757 32.1819 17.7982 32.8505 14.7974C33.499 11.8878 33.5987 8.96333 33.2628 6.0197C33.0349 4.02338 32.7301 2.03541 32.454 0H38.6511C40.0387 9.84682 37.3283 18.2603 29.7868 25Z" fill="#FEFEFE"/>
<path fill-rule="evenodd" clip-rule="evenodd" d="M29.7529 0C30.1423 2.16807 30.7115 4.34398 30.8835 6.55494C31.0832 9.12003 30.977 11.7168 30.9233 14.2981C30.8794 16.3947 30.4542 18.4426 29.7156 20.3812C29.2452 21.6153 28.5676 22.7603 27.9557 24C27.4064 23.5346 26.9886 23.2458 26.6595 22.8695C26.5298 22.7214 26.517 22.3489 26.5876 22.1279C27.3477 19.7511 27.7571 17.3319 27.6498 14.8046C27.559 12.6626 27.0324 10.6413 26.3246 8.66794C25.2643 5.71128 23.812 2.96834 22.1307 0.360197C22.0767 0.276631 22.059 0.166651 22 0H29.7529Z" fill="#FEFEFE"/>
<path fill-rule="evenodd" clip-rule="evenodd" d="M25.1128 22C24.6243 21.8547 24.1693 21.7191 23.6149 21.5542C23.6816 20.9593 23.7907 20.3654 23.8081 19.7688C23.9177 16.0147 22.878 12.6004 20.6317 9.66902C19.1572 7.74427 17.5173 5.9361 15.8131 4.22189C14.3437 2.74407 12.6789 1.4731 11 0.0238746H12.7437C14.3213 0.0238746 15.9009 0.0751051 17.4754 0.00347871C18.3284 -0.0353858 18.9103 0.250798 19.4737 0.892224C22.275 4.0812 24.3952 7.65658 25.4298 11.8549C26.2634 15.2368 26.2039 18.5992 25.1128 22Z" fill="#FEFEFE"/>
</svg>
