<svg width="147" height="13" viewBox="0 0 147 13" fill="none" xmlns="http://www.w3.org/2000/svg">
<path fill-rule="evenodd" clip-rule="evenodd" d="M91.0037 6.05938C90.9159 9.39141 92.4034 11.8893 95.1137 12.7219C96.0819 13.0141 97.0991 13.077 98.0929 12.9061C100.97 12.4434 102.809 10.0383 102.984 6.70782C103.191 3.69536 101.361 0.946556 98.6108 0.138136C97.5983 -0.0460453 96.5635 -0.0460453 95.551 0.138136C92.9026 0.725621 91.0053 3.19611 91.0037 6.05938ZM97.1262 2.0789C99.3719 2.15667 101.133 4.14596 101.059 6.52212V6.88744C101.02 8.42993 100.203 9.83199 98.9182 10.5624C97.6336 11.2928 96.0778 11.2398 94.8403 10.4235C93.6027 9.60715 92.8728 8.1524 92.927 6.6104V6.24052C93.0005 3.86436 94.8806 2.00114 97.1262 2.0789Z" fill="white"/>
<path d="M1.79415 4.08727V11.8269H0V0C0.341676 0.261803 5.38386 5.13019 7.69263 7.28755L8.20444 7.80973V0.174535H10V12C9.65832 11.7439 4.78065 6.95708 2.47891 4.69671C2.26746 4.47481 2.03844 4.27098 1.79415 4.08727Z" fill="white"/>
<path fill-rule="evenodd" clip-rule="evenodd" d="M33.7314 12V8.3399C34.8852 8.3399 36.039 8.3399 37.0274 8.25031C39.3349 8.07112 40.8182 6.6435 40.9836 4.50061C41.1477 2.18294 40.0766 0.394015 37.9344 0.126704C35.9563 0.0371107 33.9781 -0.0524825 32 0.0371107V12H33.7314ZM33.8114 6.55391V1.82163C34.9381 1.76113 36.0674 1.79107 37.19 1.91122H37.4368C38.5053 2.03754 39.2789 3.07513 39.1682 4.2333V4.46536C39.1533 5.63336 38.2683 6.56779 37.19 6.55391C36.424 6.6134 35.6943 6.59389 34.9528 6.57406C34.5774 6.56403 34.1991 6.55391 33.8114 6.55391Z" fill="white"/>
<path d="M111.796 4.08727V11.8269H110V0C110.343 0.261803 115.641 5.39199 118.12 7.8269V0.174535H120V12C119.658 11.7396 114.786 6.95708 112.565 4.78255L111.796 4.08727Z" fill="white"/>
<path d="M141.633 12V1.79006H138V0H147V1.70166H143.457V12H141.633Z" fill="white"/>
<path d="M130 12V0H133V11.9145H130V12Z" fill="white"/>
<path d="M86 0V1.70166H79.001V5.19337H84.9098V6.89503H79.001V10.2085H86V12H77V0H86Z" fill="white"/>
<path d="M64 0H65.8061V10.2817H72V12H64V0Z" fill="white"/>
<path fill-rule="evenodd" clip-rule="evenodd" d="M46.0035 6.05874C45.9157 9.39035 47.4908 11.8879 50.113 12.7204C51.1108 13.0148 52.1569 13.0776 53.1798 12.9046C55.9717 12.4419 57.8072 10.0448 57.9841 6.70711C58.191 3.69503 56.3614 0.946567 53.6113 0.138249C52.5984 -0.0460832 51.5632 -0.0460832 50.5503 0.138249C47.9022 0.72566 46.0051 3.19584 46.0035 6.05874ZM52.1254 2.08029C54.37 2.15805 56.1301 4.14641 56.0566 6.52143V6.89127C56.0091 8.42763 55.1905 9.82046 53.9092 10.5451C52.628 11.2697 51.0787 11.216 49.845 10.4043C48.6113 9.59256 47.8806 8.14607 47.9281 6.6097V6.23986C48.0016 3.86484 49.8808 2.00254 52.1254 2.08029Z" fill="white"/>
<path fill-rule="evenodd" clip-rule="evenodd" d="M26.9127 11.8256L27 12L24.8255 11.9827L23.9571 10.056H18.1302L17.2604 11.9827H15L16.0429 9.88015C16.6054 8.75285 17.2578 7.4349 17.901 6.1357C19.4465 3.01373 20.9384 0 21 0C21.0873 0 26.6524 11.2117 26.9127 11.8256ZM18.9127 8.23442L18.8255 8.40879L23.1745 8.40303L21 3.5033L18.9127 8.23442Z" fill="white"/>
</svg>
